<svg xmlns="http://www.w3.org/2000/svg" viewBox="0 0 1000 340">
  <g transform="translate(0, 20)">
    <!-- Hintergrund-Rechteck (abgerundet) für das Icon-Teil -->
    <rect x="50" y="40" width="220" height="220" rx="55" fill="#00666a" />
    
    <!-- Dokument-Icon -->
    <path d="M100 85 l75 0 l15 15 l0 95 a10 10 0 0 1 -10 10 h-80 a10 10 0 0 1 -10 -10 v-110 z" fill="#ffffff" />
    <path d="M175 85 l15 15 h-15 z" fill="#cccccc" />
    <rect x="110" y="125" width="70" height="7" rx="3.5" fill="#888888" />
    <rect x="110" y="145" width="70" height="7" rx="3.5" fill="#888888" />
    <rect x="110" y="165" width="50" height="7" rx="3.5" fill="#888888" />
    
    <!-- Sprechblase -->
    <circle cx="210" cy="185" r="45" fill="#ffcc66" />
    <path d="M175 220 l0 25 l30 -22 z" fill="#ffcc66" />
    <rect x="185" y="178" width="30" height="6" rx="3" fill="#333333" />
    <rect x="185" y="195" width="23" height="6" rx="3" fill="#333333" />

    <!-- Text: Zeugnisbemerkungen -->
    <text x="300" y="145" font-family="Arial, sans-serif" font-size="75" font-weight="900" fill="#f1f5f9">Zeugnisbemerkungen</text>
    
    <!-- FSR Badge -->
    <rect x="300" y="175" width="115" height="55" rx="15" fill="#00666a" />
    <text x="325" y="215" font-family="Arial, sans-serif" font-size="34" font-weight="bold" fill="#ffffff">FSR</text>
    
    <!-- Subtext: endlich einfach -->
    <text x="440" y="213" font-family="Arial, sans-serif" font-size="28" fill="#94a3b8">endlich einfach</text>
  </g>
</svg>
