<svg xmlns="http://www.w3.org/2000/svg" viewBox="0 0 1100 360">
  <g transform="translate(20, 30)">
    <!-- Hintergrund-Rechteck (abgerundet) für das Icon-Teil -->
    <rect x="10" y="10" width="220" height="220" rx="55" fill="#00666a" />
    
    <!-- Dokument-Icon -->
    <path d="M60 55 l75 0 l15 15 l0 95 a10 10 0 0 1 -10 10 h-80 a10 10 0 0 1 -10 -10 v-110 z" fill="#ffffff" />
    <path d="M135 55 l15 15 h-15 z" fill="#cccccc" />
    <rect x="70" y="95" width="70" height="7" rx="3.5" fill="#888888" />
    <rect x="70" y="115" width="70" height="7" rx="3.5" fill="#888888" />
    <rect x="70" y="135" width="50" height="7" rx="3.5" fill="#888888" />
    
    <!-- Sprechblase -->
    <circle cx="170" cy="155" r="45" fill="#ffcc66" />
    <path d="M135 190 l0 25 l30 -22 z" fill="#ffcc66" />
    <rect x="145" y="148" width="30" height="6" rx="3" fill="#333333" />
    <rect x="145" y="165" width="23" height="6" rx="3" fill="#333333" />

    <!-- Text: Zeugnisbemerkungen -->
    <text x="260" y="115" font-family="Arial, sans-serif" font-size="75" font-weight="900" fill="#ffffff">Zeugnisbemerkungen</text>
    
    <!-- FSR Badge -->
    <rect x="260" y="145" width="115" height="55" rx="15" fill="#00666a" />
    <text x="285" y="185" font-family="Arial, sans-serif" font-size="34" font-weight="bold" fill="#ffffff">FSR</text>
    
    <!-- Subtext: endlich einfach -->
    <text x="400" y="183" font-family="Arial, sans-serif" font-size="28" fill="#cbd5e1">endlich einfach</text>
  </g>
</svg>
